{"title":"The Hunger Games(2012)MPEG-4[DaScubaDude]","uid":14335649,"size":1427226676,"categoryP":"video","categoryS":"movies","magnet":"?xt=urn:btih:6f8277a9a50d419861f400d788b913ec08564948&amp;dn=The+Hunger+Games%282012%29MPEG-4%5BDaScubaDude%5D&amp;tr=udp%3A%2F%2Ftracker.leechers-paradise.org%3A6969&amp;tr=udp%3A%2F%2Fzer0day.ch%3A1337&amp;tr=udp%3A%2F%2Fopen.demonii.com%3A1337&amp;tr=udp%3A%2F%2Ftracker.coppersurfer.tk%3A6969&amp;tr=udp%3A%2F%2Fexodus.desync.com%3A6969","seeders":1,"leechers":0,"uploader":"dascuba","files":1,"time":1460705864,"description":"The Hunger Games (2012)\r\nPG-13 | 2h 22min | Adventure, Drama, Sci-Fi | 23 March 2012 (USA)\r\nKatniss Everdeen voluntarily takes her younger sister's place in the Hunger Games, a televised competition in which two teenagers from each of the twelve Districts of Panem are chosen at random to fight to the death.\r\nDirector: Gary Ross\r\nWriters: Gary Ross (screenplay), Suzanne Collins (screenplay) | \r\nStars: Jennifer Lawrence, Josh Hutcherson, Liam Hemsworth \r\n\r\nGeneral\r\nComplete name                            : Hunger GamesOut_Title1.mp4\r\nFormat                                   : MPEG-4\r\nFormat profile                           : Base Media\r\nCodec ID                                 : isom\r\nFile size                                : 1.33 GiB\r\nDuration                                 : 2h 22mn\r\nOverall bit rate                         : 1 336 Kbps\r\nMovie name                               : DVD\r\nWriting application                      : Lavf54.6.100\r\n\r\nVideo\r\nID                                       : 1\r\nFormat                                   : AVC\r\nFormat/Info                              : Advanced Video Codec\r\nFormat profile                           :   \r\nFormat settings, CABAC                   : No\r\nFormat settings, ReFrames                : 6 frames\r\nCodec ID                                 : avc1\r\nCodec ID/Info                            : Advanced Video Coding\r\nDuration                                 : 2h 22mn\r\nBit rate                                 : 1 201 Kbps\r\nWidth                                    : 720 pixels\r\nHeight                                   : 404 pixels\r\nDisplay aspect ratio                     : 16:9\r\nFrame rate mode                          : Constant\r\nFrame rate                               : 29.970 fps\r\nColor space                              : YUV\r\nChroma subsampling                       : 4:2:0\r\nBit depth                                : 8 bits\r\nScan type                                : Progressive\r\nBits/(Pixel*Frame)                       : 0.138\r\nStream size                              : 1.20 GiB (90%)\r\n\r\nAudio\r\nID                                       : 2\r\nFormat                                   : AAC\r\nFormat/Info                              : Advanced Audio Codec\r\nFormat profile                           : LC\r\nCodec ID                                 : 40\r\nDuration                                 : 2h 22mn\r\nBit rate mode                            : Constant\r\nBit rate                                 : 128 Kbps\r\nChannel(s)                               : 2 channels\r\nChannel positions                        : Front: L R\r\nSampling rate                            : 44.1 KHz\r\nCompression mode                         : Lossy\r\nStream size                              : 130 MiB (10%)","torrent":{"xt":"urn:btih:6f8277a9a50d419861f400d788b913ec08564948","amp;dn":"The+Hunger+Games%282012%29MPEG-4%5BDaScubaDude%5D","amp;tr":["udp%3A%2F%2Ftracker.leechers-paradise.org%3A6969","udp%3A%2F%2Fzer0day.ch%3A1337","udp%3A%2F%2Fopen.demonii.com%3A1337","udp%3A%2F%2Ftracker.coppersurfer.tk%3A6969","udp%3A%2F%2Fexodus.desync.com%3A6969"],"infoHash":"6f8277a9a50d419861f400d788b913ec08564948","infoHashBuffer":{"type":"Buffer","data":[111,130,119,169,165,13,65,152,97,244,0,215,136,185,19,236,8,86,73,72]},"announce":[],"urlList":[]}}